<svg xmlns="http://www.w3.org/2000/svg" viewBox="0 0 36.46 34.24"><defs><style>.cls-1{fill:#1b6ae3;}</style></defs><title>Asset 1</title><g id="Layer_2" data-name="Layer 2"><g id="Layer_1-2" data-name="Layer 1"><path class="cls-1" d="M370.11,114.44c-.31,1,0,1.92-.77,2.86a25.87,25.87,0,0,0-7.31,1.2c-1.45.44-2.37-.78-3.4-1.79a36.88,36.88,0,0,1,8.61-7.52c.47.45.94,1.21,1.44,1.45l9-1.44,0-1.5c0-.77,1.51-.21,2.43.06a31.37,31.37,0,0,1,7.87,3.07v2.64c1.19.82,2.29,1.82,4.07,1.86s2.8,1.53,3,3.42a12.37,12.37,0,0,1-.66,5.49,29.44,29.44,0,0,1-10,13.62,15,15,0,0,1-4.53,2.33c-3.26,1.08-5.67-.51-5.87-3.93a16.61,16.61,0,0,1,1.29-6.22,10.59,10.59,0,0,0-3.94-2l-1.91,4.53c1.21.63,1.18,1,1.18,1a28.08,28.08,0,0,0-.89,8c-3.09-2.86-5.68-5.72-6.74-9.65-1.11-4.09,1-6.66,5.18-6.52,2.87.1,5.28,1.35,7.73,2.74a26.75,26.75,0,0,1,8,6.9,23.54,23.54,0,0,0,7.06-8.11c-.52-1.23-1.22-1.7-2.44-1a2.47,2.47,0,0,1-1.21.19,4.55,4.55,0,0,1-1.8-.62,27.25,27.25,0,0,1-4.46-3.56,3.36,3.36,0,0,1-.6-3.59,22.14,22.14,0,0,0-10.3-3.84" transform="translate(-358.63 -107.31)"/></g></g></svg>