<svg xmlns="http://www.w3.org/2000/svg" viewBox="0 0 41.37 46.91"><defs><style>.cls-1{fill:#1b6ae3;}</style></defs><title>Asset 2</title><g id="Layer_2" data-name="Layer 2"><g id="Layer_1-2" data-name="Layer 1"><path class="cls-1" d="M380.85,156.77a44.93,44.93,0,0,1-8.37-6.44c1.22-2.41,1.53-2.63,4-2.3a12.3,12.3,0,0,0,5.29-.54,3.65,3.65,0,0,1,2.62-.24c.58.53.47,1.39,1,2.1a34,34,0,0,0,9.85-7.47c-2.17-2.47-.14-4.14,1.24-6a12.2,12.2,0,0,0,.95-1.35c1.1-2,2.49-3.35,5-2.64a33.18,33.18,0,0,0,3.74-10.81c-.92-.3-1.84.17-2.67-.21-.79-.9-.36-2-.51-3a9.41,9.41,0,0,0-.54-2.82c-1-2.07-.47-3.72,1.38-5.22a31,31,0,0,1,7.39,7.65c-.05.26.44.29-1.07.68l.67,7.43c4.12,2.15,3.22,4.66,2.14,7.63a43.76,43.76,0,0,1-2.77,6.43,3.84,3.84,0,0,0-3.85.84c-.58.54-3.77,4.9-4,5.16a3,3,0,0,0,.08,4c-3.09,3-6.31,5.64-10.62,6.93a3.43,3.43,0,0,0-3.34-1.85l-5,.27a3.1,3.1,0,0,0-2.59,1.74" transform="translate(-372.48 -109.87)"/></g></g></svg>