<svg xmlns="http://www.w3.org/2000/svg" viewBox="0 0 127.56 47.21"><defs><style>.cls-1{fill:#0057ff;}.cls-2{fill:#3c3835;}</style></defs><title>Asset 4</title><g id="Layer_2" data-name="Layer 2"><g id="Layer_1-2" data-name="Layer 1"><path class="cls-1" d="M440,252v25.48h-5V252H424.75a2.53,2.53,0,0,0-2.54,2.54v22.94h-5.13V254.58a7.65,7.65,0,0,1,7.67-7.67h25.48a7.66,7.66,0,0,1,7.68,7.67v22.94h-5.09V254.58a2.41,2.41,0,0,0-.76-1.8,2.55,2.55,0,0,0-1.83-.74Z" transform="translate(-417.08 -246.91)"/><path class="cls-1" d="M493.39,264.53H478.13a7.61,7.61,0,0,1-7.67-7.68c0-2.91,0-5.45,2.24-7.7a7.37,7.37,0,0,1,5.43-2.24h15.26a6.93,6.93,0,0,1,5.25,2.22,7.64,7.64,0,0,1,2.1,5.45v2.18h-5.13v-2.18a2.53,2.53,0,0,0-2.54-2.54H478.13a2.53,2.53,0,0,0-2.54,2.54v2.27a2.52,2.52,0,0,0,.74,1.85,2.45,2.45,0,0,0,1.8.74h15.26a7.7,7.7,0,0,1,7.68,7.68c0,3.05.13,5.78-2.24,8.16a7.44,7.44,0,0,1-5.44,2.24H478.46a7.65,7.65,0,0,1-7.68-7.68v-2.21h5.13v2.21a2.53,2.53,0,0,0,2.55,2.55h14.93a2.53,2.53,0,0,0,2.55-2.55v-2.72a2.52,2.52,0,0,0-.74-1.85,2.45,2.45,0,0,0-1.81-.74" transform="translate(-417.08 -246.91)"/><path class="cls-1" d="M539.5,264.53H521.7a2.41,2.41,0,0,0-1.8.74,2.48,2.48,0,0,0-.74,1.85v2.72a2.53,2.53,0,0,0,2.54,2.55H537a2.53,2.53,0,0,0,2.54-2.55Zm0-5.09v-4.86A2.53,2.53,0,0,0,537,252H522.07a2.53,2.53,0,0,0-2.54,2.54v2.5h-5.09v-2.5a7.45,7.45,0,0,1,2.22-5.43,7.3,7.3,0,0,1,5.41-2.24H537a7.66,7.66,0,0,1,7.68,7.67v15.26a7.66,7.66,0,0,1-7.68,7.68H521.7a7.66,7.66,0,0,1-7.68-7.68v-2.72a7.72,7.72,0,0,1,7.68-7.68Z" transform="translate(-417.08 -246.91)"/><path class="cls-2" d="M421.94,286.34v5.15h-1v-5.15h-2.07a.48.48,0,0,0-.36.15.5.5,0,0,0-.16.36v4.64h-1v-4.64a1.54,1.54,0,0,1,1.55-1.55H424a1.55,1.55,0,0,1,1.56,1.55v4.64h-1v-4.64a.46.46,0,0,0-.16-.36.5.5,0,0,0-.37-.15Z" transform="translate(-417.08 -246.91)"/><polygon class="cls-2" points="14.81 40.92 14.81 41.95 10.7 41.95 10.7 43.54 15.85 43.54 15.85 44.58 9.66 44.58 9.66 38.39 15.85 38.39 15.85 39.43 10.7 39.43 10.7 40.92 14.81 40.92"/><rect class="cls-2" x="23.96" y="38.39" width="1.04" height="6.19"/><path class="cls-2" d="M458.87,288.86h-3.08a1.5,1.5,0,0,1-1.1-.45,1.46,1.46,0,0,1-.46-1.1v-.46a1.47,1.47,0,0,1,.46-1.1,1.5,1.5,0,0,1,1.1-.45h3.08a1.38,1.38,0,0,1,1.06.45,1.51,1.51,0,0,1,.43,1.1v.44h-1v-.44a.51.51,0,0,0-.51-.51h-3a.5.5,0,0,0-.37.15.49.49,0,0,0-.15.36v.46a.51.51,0,0,0,.52.52h3.08a1.51,1.51,0,0,1,1.1.46,1.53,1.53,0,0,1,.46,1.1v.55A1.53,1.53,0,0,1,460,291a1.5,1.5,0,0,1-1.1.45h-3a1.54,1.54,0,0,1-1.55-1.55v-.45h1v.45a.51.51,0,0,0,.51.51h3a.5.5,0,0,0,.37-.15.49.49,0,0,0,.15-.36v-.55a.52.52,0,0,0-.15-.38.5.5,0,0,0-.37-.15" transform="translate(-417.08 -246.91)"/><polygon class="cls-2" points="49.59 40.92 49.59 41.95 45.47 41.95 45.47 43.54 50.63 43.54 50.63 44.58 44.43 44.58 44.43 38.39 50.63 38.39 50.63 39.43 45.47 39.43 45.47 40.92 49.59 40.92"/><polygon class="cls-2" points="61.76 43.18 63.76 38.39 64.84 38.39 62.27 44.58 61.23 44.58 58.65 38.39 59.74 38.39 61.76 43.18"/><rect class="cls-2" x="65.6" y="38.39" width="1.04" height="6.19"/><path class="cls-2" d="M491.08,289.49v.45a1.55,1.55,0,0,1-1.56,1.55h-3.08a1.5,1.5,0,0,1-1.1-.45,1.53,1.53,0,0,1-.46-1.1v-3.09a1.55,1.55,0,0,1,1.56-1.55h3.08a1.5,1.5,0,0,1,1.1.45,1.47,1.47,0,0,1,.46,1.1v.44h-1v-.44a.49.49,0,0,0-.15-.36.5.5,0,0,0-.37-.15h-3.08a.5.5,0,0,0-.37.15.49.49,0,0,0-.15.36v3.09a.49.49,0,0,0,.15.36.5.5,0,0,0,.37.15h3.08a.5.5,0,0,0,.37-.15.49.49,0,0,0,.15-.36v-.45Z" transform="translate(-417.08 -246.91)"/><polygon class="cls-2" points="79.95 40.92 79.95 41.95 75.83 41.95 75.83 43.54 80.99 43.54 80.99 44.58 74.8 44.58 74.8 38.39 80.99 38.39 80.99 39.43 75.83 39.43 75.83 40.92 79.95 40.92"/><path class="cls-2" d="M515.56,285.75a1.5,1.5,0,0,0-1.1-.45h-3.1a1.48,1.48,0,0,0-1.09.45,1.5,1.5,0,0,0-.45,1.1v3.09a1.5,1.5,0,0,0,.45,1.1,1.48,1.48,0,0,0,1.09.45H515v1.08a.48.48,0,0,1-.14.36.51.51,0,0,1-.37.15h-3.09a.51.51,0,0,1-.51-.51v-.45h-1v.45a1.55,1.55,0,0,0,1.55,1.55h3.09a1.55,1.55,0,0,0,1.55-1.55v-5.72a1.5,1.5,0,0,0-.45-1.1m-.59,4.71h-3.61a.49.49,0,0,1-.36-.15.5.5,0,0,1-.15-.37v-3.09a.51.51,0,0,1,.51-.51h3.1a.51.51,0,0,1,.37.15.48.48,0,0,1,.14.36Z" transform="translate(-417.08 -246.91)"/><polygon class="cls-2" points="105.28 40.92 105.28 41.95 101.16 41.95 101.16 43.54 106.32 43.54 106.32 44.58 100.12 44.58 100.12 38.39 106.32 38.39 106.32 39.43 101.16 39.43 101.16 40.92 105.28 40.92"/><path class="cls-2" d="M529.24,291.49v-4.64a.49.49,0,0,0-.15-.36.5.5,0,0,0-.37-.15h-3.08a.5.5,0,0,0-.37.15.49.49,0,0,0-.15.36v4.64h-1v-4.64a1.55,1.55,0,0,1,1.56-1.55h3.08a1.5,1.5,0,0,1,1.1.45,1.47,1.47,0,0,1,.46,1.1v4.64Z" transform="translate(-417.08 -246.91)"/><path class="cls-2" d="M537.65,289.49v.45a1.52,1.52,0,0,1-.45,1.1,1.54,1.54,0,0,1-1.11.45H533a1.5,1.5,0,0,1-1.1-.45,1.52,1.52,0,0,1-.45-1.1v-3.09A1.54,1.54,0,0,1,533,285.3h3.08a1.54,1.54,0,0,1,1.11.45,1.5,1.5,0,0,1,.45,1.1v.44h-1v-.44a.49.49,0,0,0-.15-.36.5.5,0,0,0-.37-.15H533a.5.5,0,0,0-.37.15.49.49,0,0,0-.15.36v3.09a.49.49,0,0,0,.15.36.5.5,0,0,0,.37.15h3.08a.5.5,0,0,0,.37-.15.49.49,0,0,0,.15-.36v-.45Z" transform="translate(-417.08 -246.91)"/><path class="cls-2" d="M544.64,289.94a1.53,1.53,0,0,1-.46,1.1,1.5,1.5,0,0,1-1.1.45H540a1.55,1.55,0,0,1-1.56-1.55v-.45h1v.45a.49.49,0,0,0,.15.36.5.5,0,0,0,.37.15h3.08a.5.5,0,0,0,.37-.15.49.49,0,0,0,.15-.36v-1.08H540a1.5,1.5,0,0,1-1.1-.45,1.46,1.46,0,0,1-.46-1.1v-2h1v2a.51.51,0,0,0,.52.52h3.6V285.3h1Z" transform="translate(-417.08 -246.91)"/><path class="cls-2" d="M449,285.75a1.47,1.47,0,0,0-1.1-.46H444.8a1.47,1.47,0,0,0-1.1.46,1.51,1.51,0,0,0-.46,1.1v4.64h1v-2.63h4.12v2.63h1v-4.64a1.47,1.47,0,0,0-.46-1.1m-.58,2.08h-4.12v-1a.51.51,0,0,1,.52-.52h3.08a.51.51,0,0,1,.52.52Z" transform="translate(-417.08 -246.91)"/><path class="cls-2" d="M508.18,285.76a1.47,1.47,0,0,0-1.1-.46H504a1.45,1.45,0,0,0-1.09.46,1.47,1.47,0,0,0-.46,1.1v4.63h1v-2.62h4.12v2.62h1v-4.63a1.5,1.5,0,0,0-.45-1.1m-.58,2.08h-4.12v-1a.5.5,0,0,1,.15-.37.49.49,0,0,1,.36-.15h3.09a.51.51,0,0,1,.37.15.5.5,0,0,1,.15.37Z" transform="translate(-417.08 -246.91)"/><path class="cls-2" d="M474.59,286.85a1.47,1.47,0,0,0-.46-1.1,1.5,1.5,0,0,0-1.1-.45h-4.64v6.19h1v-2.63H473a.5.5,0,0,1,.37.15.52.52,0,0,1,.15.38v2.1h1v-2.1a1.55,1.55,0,0,0-.39-1,1.57,1.57,0,0,0,.39-1Zm-1,.46a.51.51,0,0,1-.52.52h-3.6v-1.49H473a.5.5,0,0,1,.37.15.49.49,0,0,1,.15.36Z" transform="translate(-417.08 -246.91)"/><path class="cls-2" d="M439.42,285.75a1.52,1.52,0,0,0-1.1-.45h-4.64v6.19h4.64a1.52,1.52,0,0,0,1.1-.45,1.5,1.5,0,0,0,.45-1.1v-3.09a1.5,1.5,0,0,0-.45-1.1m-.59,4.18a.5.5,0,0,1-.15.37.49.49,0,0,1-.36.15h-3.6v-4.12h3.6a.51.51,0,0,1,.51.51Z" transform="translate(-417.08 -246.91)"/></g></g></svg>